<svg xmlns="http://www.w3.org/2000/svg" viewBox="0 0 64 64">
  <rect width="64" height="64" rx="12" fill="#1f2937" />
  <circle cx="32" cy="32" r="18" fill="#a855f7" />
  <path
    d="M32 18c4.418 0 8 3.582 8 8s-3.582 8-8 8-8-3.582-8-8 3.582-8 8-8Z"
    fill="#f9fafb"
    opacity=".9"
  />
  <path
    d="M22 38c2.667-2.667 6.667-4 10-4s7.333 1.333 10 4c1.333 1.333.667 3.667-1.333 4.333C37.667 43.333 34.667 44 32 44s-5.667-.667-8.667-1.667C21.333 41.667 20.667 39.333 22 38Z"
    fill="#f9fafb"
    opacity=".8"
  />
  <circle cx="26" cy="26" r="2" fill="#1f2937" />
  <circle cx="38" cy="26" r="2" fill="#1f2937" />
</svg>

